<?xml version="1.0" standalone="no"?>
<!DOCTYPE svg PUBLIC "-//W3C//DTD SVG 20010904//EN" "http://www.w3.org/TR/2001/REC-SVG-20010904/DTD/svg10.dtd">
<svg xmlns="http://www.w3.org/2000/svg" version="1.0" width="822.000000pt" height="463.000000pt" viewBox="0 0 822.000000 463.000000" preserveAspectRatio="xMidYMid meet">
<metadata>
Created by potrace 1.16, written by Peter Selinger 2001-2019
<meta name="Producer" content="Online-Convert"/></metadata>
<g transform="translate(0.000000,463.000000) scale(0.100000,-0.100000)" fill="#000000" stroke="none">
<path d="M5875 4091 c-365 -174 -572 -271 -578 -271 -4 0 -7 50 -7 110 l0 110 -232 -2 -232 -3 2 -180 c1 -99 -2 -199 -6 -223 l-7 -43 -190 -90 c-104 -50 -212 -101 -240 -114 -266 -123 -329 -157 -315 -165 39 -25 91 -8 425 136 1200 516 1476 634 1488 634 8 0 292 -120 633 -266 340 -146 747 -321 904 -389 247 -106 289 -121 313 -113 15 6 27 13 27 16 -1 4 -40 25 -88 47 -48 22 -165 77 -261 122 -95 46 -174 83 -176 83 -2 0 -75 35 -475 227 -74 36 -164 79 -200 95 -36 17 -202 98 -369 179 -167 82 -307 149 -310 148 -3 0 -51 -22 -106 -48z"/>
<path d="M687 3231 c-3 -14 -5 -99 -5 -188 l2 -163 43 0 43 0 0 117 0 117 48 -72 c26 -39 50 -72 53 -72 4 0 26 29 49 65 23 36 46 65 50 65 4 0 6 -43 4 -95 -2 -52 -1 -102 2 -110 4 -10 20 -15 45 -15 l39 0 -2 187 -3 186 -35 3 c-19 2 -40 0 -47 -4 -6 -4 -31 -40 -56 -80 l-45 -72 -49 77 c-48 76 -51 78 -90 79 -37 2 -42 -1 -46 -25z"/>
<path d="M4497 3254 c-4 -4 -7 -90 -7 -191 l0 -183 40 0 40 0 0 75 0 75 75 0 75 0 0 -75 0 -75 40 0 40 0 0 190 0 190 -40 0 -40 0 0 -75 0 -75 -75 0 -74 0 -3 72 -3 72 -31 3 c-16 2 -33 1 -37 -3z"/>
<path d="M1300 3025 l0 -145 40 0 40 0 0 145 0 145 -40 0 -40 0 0 -145z"/>
<path d="M1655 3158 c-32 -17 -45 -39 -45 -78 0 -45 20 -65 86 -89 51 -18 65 -44 28 -49 -12 -2 -39 4 -60 13 -36 15 -39 15 -51 -1 -7 -10 -13 -24 -13 -31 0 -21 58 -44 112 -45 71 0 102 24 106 84 3 52 -10 68 -82 95 -27 10 -51 23 -53 30 -7 19 34 25 71 9 36 -15 36 -15 51 15 16 30 16 30 -19 44 -41 18 -103 19 -131 3z"/>
<path d="M2075 3158 c-32 -17 -45 -39 -45 -78 0 -45 20 -65 86 -89 51 -18 65 -44 28 -49 -12 -2 -39 4 -59 12 -35 15 -39 15 -51 -1 -20 -27 -17 -41 14 -57 52 -27 132 -24 167 7 20 16 27 33 28 60 1 46 -20 69 -87 94 -27 10 -51 23 -53 30 -7 19 34 25 71 9 36 -15 36 -15 51 15 16 30 16 30 -19 44 -41 18 -103 19 -131 3z"/>
<path d="M2525 3151 c-53 -33 -69 -58 -72 -119 -7 -96 49 -155 147 -155 82 0 141 50 156 130 9 47 -30 121 -76 145 -45 23 -116 23 -155 -1z m117 -65 c31 -23 38 -60 20 -97 -14 -28 -23 -35 -54 -37 -47 -4 -78 24 -78 70 0 60 67 99 112 64z"/>
<path d="M2970 3060 c0 -121 12 -163 52 -176 36 -11 77 -7 104 11 21 14 24 14 24 0 0 -11 11 -15 40 -15 l40 0 0 145 0 145 -40 0 -40 0 0 -93 c0 -78 -3 -97 -18 -110 -24 -22 -45 -21 -65 1 -13 15 -17 39 -17 110 l0 92 -40 0 -40 0 0 -110z"/>
<path d="M3460 3025 l0 -145 40 0 c31 0 40 4 40 18 1 51 14 139 22 155 5 10 22 20 38 24 31 6 42 24 35 58 -2 11 -4 23 -4 28 -2 12 -36 8 -57 -8 -25 -19 -34 -19 -34 0 0 11 -11 15 -40 15 l-40 0 0 -145z"/>
<path d="M3847 3163 c-3 -5 -5 -70 -5 -145 l1 -138 43 0 44 0 0 145 0 145 -39 0 c-22 0 -42 -3 -44 -7z"/>
<path d="M5105 3152 c-54 -34 -69 -59 -72 -120 -3 -44 0 -64 16 -89 71 -114 264 -76 286 57 8 49 -21 121 -60 146 -41 27 -133 30 -170 6z m125 -72 c25 -25 27 -86 3 -112 -39 -43 -123 -9 -123 51 0 67 75 106 120 61z"/>
<path d="M5550 3060 c0 -133 12 -164 67 -179 31 -9 45 -7 75 8 30 15 38 16 38 5 0 -10 13 -14 40 -14 l40 0 0 145 0 145 -40 0 -40 0 0 -94 c0 -100 -10 -126 -50 -126 -36 0 -50 38 -50 132 l0 88 -40 0 -40 0 0 -110z"/>
<path d="M6080 3157 c-31 -16 -54 -61 -46 -92 9 -35 37 -57 96 -78 29 -11 50 -23 47 -30 -6 -19 -53 -20 -88 -2 -31 17 -33 17 -50 -6 -25 -32 -24 -34 19 -53 65 -29 134 -25 167 9 28 27 34 80 13 108 -7 9 -39 28 -70 42 -32 13 -58 29 -58 35 0 19 25 21 67 6 40 -14 41 -14 52 10 16 36 14 41 -20 53 -42 15 -98 14 -129 -2z"/>
<path d="M6470 3025 l0 -145 40 0 40 0 0 145 0 145 -40 0 -40 0 0 -145z"/>
<path d="M6785 3123 c-3 -27 -5 -92 -3 -145 l3 -98 43 0 42 0 0 95 c0 89 1 95 24 110 19 13 29 14 45 5 12 -6 21 -16 22 -23 0 -7 1 -51 1 -99 l1 -88 44 0 45 0 -4 121 c-3 118 -4 121 -31 145 -33 28 -91 32 -125 8 -20 -14 -22 -14 -22 0 0 12 -10 16 -39 16 -39 0 -39 0 -46 -47z"/>
<path d="M7305 3137 c-43 -43 -53 -93 -31 -152 28 -72 101 -101 169 -66 36 18 37 18 37 1 0 -46 -60 -69 -129 -51 -40 11 -47 10 -58 -5 -21 -29 -15 -42 25 -55 51 -18 141 -15 180 5 53 28 62 58 62 216 l0 140 -40 0 c-30 0 -40 -4 -40 -16 0 -15 -2 -15 -25 0 -13 9 -45 16 -71 16 -39 0 -51 -5 -79 -33z"/>
<path d="M699 2615 c-1 -85 -1 -162 -1 -170 0 -45 -1 -45 90 -45 63 0 98 6 128 19 72 33 111 107 100 188 -15 112 -93 162 -248 163 l-68 0 -1 -155z m218 87 c40 -28 68 -98 59 -147 -11 -54 -57 -101 -114 -113 -26 -6 -65 -10 -87 -9 l-40 2 -3 134 c-1 74 0 141 3 149 9 24 142 12 182 -16z"/>
<path d="M4442 2743 c-73 -48 -103 -144 -72 -237 24 -72 120 -125 205 -111 44 7 105 43 105 62 0 24 -22 25 -47 2 -20 -20 -35 -24 -88 -24 -54 0 -67 4 -90 25 -39 36 -55 73 -55 125 0 81 48 138 126 150 30 5 50 1 89 -19 36 -18 51 -22 57 -14 19 31 -52 68 -130 68 -46 0 -66 -5 -100 -27z"/>
<path d="M4009 2730 c-1 -11 -3 -24 -4 -30 -1 -5 -3 -14 -4 -20 0 -5 -8 -10 -16 -10 -8 0 -15 -8 -15 -19 0 -12 7 -18 18 -17 15 1 17 -10 19 -89 2 -49 5 -100 8 -112 6 -25 56 -46 91 -37 38 10 30 34 -11 34 -46 0 -55 20 -55 119 0 78 1 81 25 87 14 3 34 4 45 1 15 -4 20 0 20 13 0 15 -9 19 -42 22 -44 3 -43 2 -47 61 -1 24 -31 22 -32 -3z"/>
<path d="M1773 2669 c-96 -27 -122 -176 -42 -243 53 -45 141 -43 183 3 24 26 3 36 -29 15 -39 -25 -102 -22 -130 7 -13 13 -26 34 -30 47 -6 22 -6 22 106 22 l112 0 -6 36 c-14 85 -86 135 -164 113z"/>
<path d="M2615 2673 c-11 -3 -35 -16 -52 -30 l-33 -24 0 25 c0 16 -6 26 -15 26 -17 0 -16 3 -17 -130 -1 -201 1 -230 17 -230 12 0 15 14 15 65 0 36 2 65 5 65 2 0 21 -11 41 -25 20 -14 49 -25 64 -25 61 0 130 77 130 145 0 82 -82 154 -155 138z m80 -57 c46 -46 45 -129 -2 -166 -83 -65 -195 34 -148 133 28 60 106 77 150 33z"/>
<path d="M2950 2669 c-18 -4 -39 -14 -46 -23 -15 -22 -24 -20 -24 4 0 11 -7 20 -15 20 -13 0 -15 -22 -15 -136 0 -124 2 -135 18 -132 14 3 17 13 14 70 -4 93 10 142 48 158 38 16 76 6 92 -23 7 -12 13 -61 14 -112 1 -74 4 -91 18 -93 14 -3 16 9 16 83 0 89 14 137 45 149 31 12 65 6 85 -14 17 -17 20 -33 20 -120 0 -93 1 -100 20 -100 19 0 20 7 20 105 0 101 -1 106 -28 136 -23 26 -36 32 -71 32 -28 0 -52 -8 -72 -23 -27 -19 -32 -20 -42 -6 -18 23 -58 34 -97 25z"/>
<path d="M3775 2672 c-11 -2 -32 -13 -47 -24 -28 -19 -28 -19 -28 1 0 25 -27 28 -32 5 -2 -9 -2 -70 0 -135 3 -96 6 -119 18 -119 11 0 14 17 14 79 0 94 12 134 46 150 81 37 128 -17 124 -143 -3 -78 -1 -86 15 -86 12 0 15 18 15 105 0 100 -1 106 -27 134 -29 30 -63 42 -98 33z"/>
<path d="M4835 2669 c-41 -11 -85 -59 -95 -104 -31 -139 133 -231 234 -130 104 104 4 272 -139 234z m89 -40 c34 -16 60 -72 52 -114 -17 -86 -108 -116 -170 -55 -24 24 -29 37 -29 76 0 40 4 51 31 76 35 30 74 36 116 17z"/>
<path d="M5190 2669 c-13 -6 -33 -17 -42 -26 -17 -15 -18 -15 -18 5 0 15 -6 22 -20 22 -19 0 -20 -7 -20 -135 0 -128 1 -135 20 -135 18 0 20 7 20 85 0 89 15 137 45 149 31 12 65 6 85 -14 17 -17 20 -33 20 -120 0 -93 1 -100 20 -100 19 0 20 7 20 95 0 88 2 98 25 120 33 34 77 33 104 -1 18 -23 21 -41 21 -120 0 -87 1 -94 20 -94 19 0 20 7 20 90 0 93 -13 143 -44 169 -26 22 -93 17 -128 -9 -30 -22 -30 -22 -51 -2 -28 25 -65 33 -97 21z"/>
<path d="M5700 2673 c-8 -3 -25 -15 -38 -26 l-23 -21 -6 22 c-3 12 -12 22 -19 22 -11 0 -14 -27 -14 -136 0 -120 2 -135 16 -132 14 2 17 19 18 95 2 82 5 95 26 118 28 30 68 33 101 6 22 -18 27 -54 29 -208 0 -7 7 -13 15 -13 12 0 15 15 15 79 0 87 13 137 40 151 30 16 68 12 90 -10 17 -17 20 -33 20 -120 0 -93 1 -100 20 -100 19 0 20 7 20 104 0 97 -2 107 -25 134 -15 18 -38 32 -57 35 -36 5 -98 -15 -98 -32 0 -6 -7 -11 -15 -11 -8 0 -15 5 -15 11 0 5 -16 17 -35 25 -37 15 -42 16 -65 7z"/>
<path d="M6283 2665 c-18 -8 -38 -26 -45 -40 -19 -43 5 -74 82 -104 48 -19 66 -32 68 -47 6 -45 -65 -61 -127 -30 -25 13 -30 13 -34 1 -7 -17 8 -29 56 -45 70 -22 127 3 142 61 9 37 -21 68 -91 93 -61 22 -77 43 -53 73 13 15 23 15 113 1 30 -5 29 18 -1 30 -51 19 -78 21 -110 7z"/>
<path d="M6987 2665 c-68 -23 -97 -65 -97 -139 0 -39 6 -52 36 -85 84 -93 228 -45 241 80 10 101 -84 177 -180 144z m92 -40 c36 -18 55 -64 48 -111 -11 -64 -63 -99 -124 -82 -46 12 -73 51 -73 105 0 82 75 127 149 88z"/>
<path d="M7358 2670 c-15 -3 -37 -13 -48 -22 -20 -18 -22 -18 -24 4 -1 14 -36 24 -37 11 0 -4 0 -64 -1 -133 -1 -117 0 -125 18 -125 17 0 19 7 16 67 -6 120 21 168 93 168 26 0 64 -31 66 -52 0 -7 1 -52 2 -100 1 -77 4 -88 19 -88 16 0 18 11 18 104 0 97 -2 107 -25 134 -27 32 -54 41 -97 32z"/>
<path d="M1146 2651 c-41 -27 -55 -57 -56 -117 0 -93 73 -157 160 -140 47 9 89 41 74 56 -9 9 -18 8 -35 -3 -25 -16 -46 -20 -87 -18 -29 1 -72 44 -72 71 0 19 6 20 105 20 l105 0 0 30 c0 38 -23 84 -52 104 -31 22 -106 20 -142 -3z"/>
<path d="M1381 2663 c2 -28 118 -269 130 -271 11 -2 33 38 76 138 57 131 59 140 39 140 -18 0 -28 -18 -65 -111 -24 -61 -47 -107 -51 -102 -5 4 -26 53 -48 108 -31 78 -44 101 -61 103 -11 2 -21 0 -20 -5z"/>
<path d="M2183 2637 c-31 -29 -37 -41 -41 -90 -6 -70 19 -115 77 -142 119 -53 238 66 188 188 -21 50 -68 77 -135 77 -45 0 -57 -4 -89 -33z m140 -8 c51 -23 71 -94 42 -149 -41 -80 -160 -62 -184 27 -25 88 59 160 142 122z"/>
<path d="M3388 2647 c-38 -32 -51 -65 -49 -121 3 -95 82 -154 171 -127 47 14 76 39 61 54 -7 7 -15 6 -25 -2 -29 -24 -77 -31 -112 -16 -31 13 -70 66 -57 79 4 3 53 6 110 6 102 0 103 0 103 24 0 39 -19 79 -48 103 -38 31 -117 32 -154 0z"/>
<path d="M6515 2645 c-25 -24 -32 -59 -17 -81 10 -15 47 -34 95 -48 48 -14 67 -38 51 -63 -15 -24 -84 -29 -122 -9 -26 13 -31 13 -35 1 -8 -19 10 -32 67 -47 43 -11 51 -11 84 7 32 17 37 25 40 61 4 48 -4 56 -85 88 -60 23 -75 44 -53 71 15 17 57 19 96 5 21 -8 29 -8 35 2 12 19 -28 37 -84 38 -38 0 -53 -5 -72 -25z"/>
<path d="M6848 2140 c-323 -51 -572 -267 -670 -580 -20 -66 -23 -95 -23 -240 0 -185 11 -243 69 -367 49 -102 104 -180 177 -248 164 -152 343 -219 579 -218 249 1 424 68 595 228 l59 55 -113 114 -114 114 -59 -48 c-230 -185 -500 -187 -684 -5 -99 98 -144 213 -144 370 0 153 38 258 131 359 88 97 201 146 333 146 128 0 229 -37 348 -129 l65 -49 112 130 111 130 -27 25 c-109 96 -246 169 -373 198 -88 20 -290 28 -372 15z"/>
<path d="M670 1315 l0 -805 175 0 175 0 2 518 3 517 169 -255 c93 -140 194 -293 223 -338 30 -46 56 -82 58 -80 5 4 276 416 375 568 l75 114 3 -522 2 -522 175 0 175 0 0 805 0 805 -192 -2 -191 -3 -91 -146 c-50 -80 -143 -230 -206 -332 -63 -103 -118 -187 -121 -187 -4 0 -100 151 -215 335 l-209 335 -192 0 -193 0 0 -805z"/>
<path d="M2670 1315 l0 -805 175 0 175 0 0 325 0 325 330 0 330 0 0 -325 0 -325 175 0 175 0 0 805 0 805 -175 0 -175 0 -2 -317 -3 -318 -325 0 -325 0 -3 318 -2 317 -175 0 -175 0 0 -805z"/>
</g>
</svg>
