<?xml version="1.0" standalone="no"?>
<!DOCTYPE svg PUBLIC "-//W3C//DTD SVG 20010904//EN" "http://www.w3.org/TR/2001/REC-SVG-20010904/DTD/svg10.dtd">
<svg xmlns="http://www.w3.org/2000/svg" version="1.0" width="1000.000000pt" height="510.000000pt" viewBox="0 0 1000.000000 510.000000" preserveAspectRatio="xMidYMid meet">
<metadata>
Created by potrace 1.16, written by Peter Selinger 2001-2019
<meta name="Producer" content="Online-Convert"/></metadata>
<g transform="translate(0.000000,510.000000) scale(0.100000,-0.100000)" fill="#000000" stroke="none">
<path d="M4900 5041 c-52 -32 -209 -126 -347 -208 -180 -107 -249 -153 -240 -160 6 -6 50 -32 97 -60 91 -54 1347 -804 2220 -1326 294 -176 684 -409 865 -517 182 -109 489 -292 682 -408 194 -116 366 -218 382 -227 26 -13 120 -15 726 -15 401 0 695 4 695 9 0 5 -7 12 -15 15 -14 5 -303 176 -1040 616 -154 92 -460 274 -680 405 -220 131 -548 327 -730 435 -181 109 -499 297 -705 420 -206 122 -406 242 -445 265 -38 23 -261 156 -495 295 -234 139 -525 313 -648 386 -123 74 -224 134 -225 133 -1 0 -45 -26 -97 -58z"/>
<path d="M3830 4412 c-146 -87 -647 -387 -1115 -667 -1446 -865 -1946 -1163 -2335 -1396 l-375 -224 707 -3 707 -2 638 381 c351 210 969 580 1373 822 404 242 878 525 1053 630 174 104 317 193 317 196 0 6 -665 406 -692 416 -7 3 -132 -66 -278 -153z"/>
<path d="M4890 3791 c-52 -32 -171 -103 -265 -158 -93 -55 -478 -283 -855 -505 -377 -223 -775 -458 -885 -523 -618 -364 -791 -468 -799 -476 -6 -5 1133 -9 2914 -9 1720 0 2920 4 2914 9 -5 5 -259 156 -564 336 -577 341 -689 407 -1180 697 -840 497 -1154 681 -1168 684 -10 1 -60 -23 -112 -55z m258 -424 c81 -51 229 -145 329 -208 100 -62 182 -117 183 -121 0 -5 -27 -8 -60 -8 l-60 0 0 -300 0 -300 -216 2 -216 3 -1 192 c0 106 -3 197 -7 203 -4 7 -43 10 -106 8 l-99 -3 -3 -202 -2 -203 -215 0 -215 0 0 300 0 299 -67 3 -66 3 334 212 c184 117 335 213 337 213 2 0 69 -42 150 -93z"/>
<path d="M848 1900 c-97 -15 -136 -44 -163 -119 -23 -66 -22 -756 1 -824 29 -85 95 -117 244 -117 158 0 221 34 249 135 15 55 15 736 0 790 -16 58 -46 95 -93 115 -51 22 -162 31 -238 20z m130 -198 c16 -20 18 -633 2 -663 -8 -14 -21 -19 -50 -19 -29 0 -42 5 -50 19 -16 30 -14 643 3 663 22 30 71 29 95 0z"/>
<path d="M2145 1899 c-74 -11 -132 -49 -160 -104 -21 -43 -33 -193 -21 -260 9 -48 71 -121 186 -221 114 -99 132 -130 128 -211 -3 -52 -6 -59 -32 -72 -21 -10 -34 -10 -52 -2 -25 11 -33 32 -37 99 l-2 44 -98 1 -97 2 0 -81 c0 -125 29 -187 103 -226 58 -30 223 -38 296 -13 87 29 116 82 128 232 11 149 -17 201 -193 361 -114 104 -134 133 -134 198 0 38 29 74 58 74 35 0 52 -24 60 -83 4 -32 10 -58 15 -57 4 0 48 0 97 0 l90 0 0 63 c0 122 -43 210 -117 240 -51 20 -145 27 -218 16z"/>
<path d="M3945 1900 c-95 -11 -140 -41 -170 -113 -13 -32 -16 -96 -15 -426 0 -256 3 -398 10 -417 27 -70 86 -104 180 -104 72 0 122 19 145 54 22 33 28 33 42 -4 11 -29 13 -30 82 -30 l71 0 0 310 0 310 -135 0 -135 0 0 -90 0 -90 30 0 30 0 0 -124 c0 -140 -8 -159 -64 -154 -54 5 -56 19 -54 365 2 227 6 315 15 324 16 16 73 14 91 -4 8 -9 15 -36 16 -61 l1 -46 103 0 102 0 0 50 c0 89 -19 151 -59 192 -52 52 -159 74 -286 58z"/>
<path d="M7405 1901 c-59 -10 -102 -30 -131 -63 -46 -50 -49 -80 -49 -468 0 -326 2 -370 18 -411 34 -89 96 -119 241 -119 111 0 156 12 201 51 61 54 65 86 65 479 0 382 -5 424 -59 478 -16 15 -46 33 -67 40 -55 16 -160 22 -219 13z m130 -193 c6 -5 11 -131 13 -325 3 -355 2 -363 -62 -363 -60 0 -61 3 -64 325 -2 161 1 307 5 326 14 51 72 72 108 37z"/>
<path d="M0 1375 l0 -515 100 0 100 0 0 215 0 215 70 0 70 0 0 -215 0 -215 100 0 100 0 0 515 0 515 -100 0 -100 0 0 -204 0 -204 -70 -4 -70 -3 0 208 0 207 -100 0 -100 0 0 -515z"/>
<path d="M1324 1876 c-3 -8 -4 -211 -2 -452 3 -484 3 -483 67 -537 43 -36 89 -47 196 -47 105 0 153 11 194 46 59 49 61 72 61 561 l0 443 -100 0 -100 0 0 -409 c0 -242 -4 -420 -10 -435 -8 -21 -16 -26 -44 -26 -62 0 -61 -9 -64 452 l-4 418 -94 0 c-72 0 -96 -3 -100 -14z"/>
<path d="M2610 1375 l0 -515 105 0 105 0 0 515 0 515 -105 0 -105 0 0 -515z"/>
<path d="M2970 1375 l0 -515 91 0 90 0 -3 400 c-2 220 0 393 4 383 4 -10 28 -106 53 -213 25 -107 67 -278 93 -380 l47 -185 143 -3 142 -3 0 516 0 515 -96 0 -97 0 5 -401 c3 -220 2 -397 -2 -392 -4 4 -19 62 -34 128 -15 66 -57 242 -95 390 l-67 270 -137 3 -137 3 0 -516z"/>
<path d="M4840 1885 c0 -2 -16 -96 -35 -207 -112 -658 -135 -797 -135 -807 0 -7 36 -11 104 -11 l104 0 6 45 c3 25 9 65 12 90 l6 46 77 -3 76 -3 8 -55 c4 -30 10 -70 13 -87 l5 -33 105 0 106 0 -6 28 c-6 27 -106 615 -148 870 l-22 132 -138 0 c-76 0 -138 -2 -138 -5z m166 -417 c32 -275 35 -250 -28 -246 -40 2 -53 7 -52 18 3 54 49 438 52 435 3 -2 15 -95 28 -207z"/>
<path d="M5360 1465 c0 -481 3 -510 59 -566 46 -46 91 -59 207 -59 100 0 163 17 201 52 49 46 53 87 53 560 l0 438 -100 0 -100 0 0 -409 c0 -242 -4 -420 -10 -435 -8 -21 -16 -26 -44 -26 -62 0 -61 -9 -64 452 l-3 418 -100 0 -99 0 0 -425z"/>
<path d="M5968 1811 c-4 -115 -8 -110 75 -113 49 -2 72 -7 73 -15 1 -7 2 -195 3 -418 l1 -405 100 0 100 0 0 420 0 420 75 0 76 0 -3 93 -3 92 -247 3 -246 2 -4 -79z"/>
<path d="M6560 1375 l0 -515 100 0 100 0 0 215 0 215 70 0 70 0 0 -215 0 -215 100 0 100 0 -2 513 -3 512 -97 3 -98 3 0 -205 0 -204 -70 -4 -70 -3 -2 205 -3 205 -97 3 -98 3 0 -516z"/>
<path d="M7880 1375 l0 -515 100 0 100 0 0 220 0 220 44 0 c36 0 48 -5 65 -26 19 -25 21 -40 21 -205 0 -97 3 -184 6 -193 5 -13 25 -16 110 -16 100 0 104 1 94 19 -6 12 -10 94 -10 198 0 98 -4 194 -10 212 -12 44 -55 88 -93 97 l-30 6 38 22 c72 40 80 60 80 209 0 150 -8 176 -72 220 -55 38 -108 46 -285 47 l-158 0 0 -515z m295 315 c11 -9 15 -36 15 -101 0 -99 -7 -109 -74 -109 l-36 0 0 116 0 117 40 -6 c23 -3 47 -11 55 -17z"/>
<path d="M8547 1869 c-3 -12 -6 -243 -7 -515 l-1 -494 106 0 105 0 0 515 0 515 -99 0 c-92 0 -99 -1 -104 -21z"/>
<path d="M8847 1883 c-4 -3 -7 -46 -7 -95 l0 -88 75 0 75 0 0 -420 0 -420 105 0 105 0 0 420 0 420 70 0 70 0 0 95 0 95 -243 0 c-134 0 -247 -3 -250 -7z"/>
<path d="M9370 1881 c0 -5 47 -148 105 -317 l105 -308 0 -198 0 -198 100 0 100 0 0 193 0 194 104 304 c57 167 107 312 111 322 7 16 -2 17 -103 17 l-110 0 -25 -107 c-14 -60 -35 -154 -48 -211 -12 -56 -25 -100 -27 -97 -3 3 -26 96 -52 207 l-47 203 -106 3 c-64 2 -107 -1 -107 -7z"/>
<path d="M0 355 l0 -355 5000 0 5000 0 0 355 0 355 -5000 0 -5000 0 0 -355z m490 211 c69 -34 104 -98 108 -195 3 -67 0 -82 -25 -131 -84 -165 -350 -157 -418 12 -22 56 -23 152 -1 203 54 128 205 177 336 111z m1457 13 c21 -8 22 -10 9 -46 -10 -27 -19 -37 -32 -36 -11 1 -39 5 -64 9 -37 5 -50 2 -70 -14 -20 -17 -23 -24 -14 -38 11 -19 10 -18 105 -63 78 -36 102 -67 102 -129 0 -77 -60 -128 -167 -139 -52 -5 -151 11 -161 26 -2 5 0 25 6 45 9 33 14 37 32 32 48 -15 134 -18 155 -7 24 13 30 52 9 69 -7 6 -38 20 -70 32 -31 12 -73 36 -92 54 -29 28 -35 40 -35 75 0 82 47 128 140 141 49 7 112 2 147 -11z m2235 -10 c130 -66 158 -271 52 -380 -107 -109 -306 -84 -373 46 -55 106 -25 255 65 318 69 48 178 55 256 16z m3096 -1 c76 -36 114 -105 114 -208 1 -138 -74 -223 -208 -237 -148 -16 -254 82 -254 233 0 68 15 113 51 157 69 84 188 106 297 55z m-6148 -23 l0 -45 -95 0 -95 0 0 -50 0 -50 90 0 90 0 0 -45 0 -45 -90 0 -90 0 0 -90 0 -90 -55 0 -55 0 0 230 0 230 150 0 150 0 0 -45z m1420 0 l0 -45 -65 0 -65 0 0 -185 0 -185 -55 0 -55 0 0 185 0 185 -65 0 -65 0 0 45 0 45 185 0 185 0 0 -45z m918 -142 l2 -183 95 0 95 0 0 -45 0 -45 -150 0 -150 0 0 231 0 230 53 -3 52 -3 3 -182z m1172 32 c0 -194 12 -225 85 -225 73 0 85 31 85 225 l0 156 58 -3 57 -3 -1 -145 c0 -80 -4 -162 -8 -182 -29 -157 -290 -190 -363 -47 -20 40 -23 59 -23 204 -1 88 -1 163 0 168 0 4 25 7 55 7 l55 0 0 -155z m648 -77 l2 -228 -54 0 -53 0 -7 80 c-8 84 -7 359 1 373 3 4 28 7 56 5 l52 -3 3 -227z m537 221 c3 -4 1 -26 -5 -49 -10 -36 -14 -41 -33 -36 -64 18 -97 18 -122 2 -45 -30 -30 -55 50 -88 121 -49 164 -123 120 -208 -32 -63 -169 -97 -265 -67 -43 13 -45 15 -42 48 4 46 13 52 58 40 58 -16 109 -13 134 7 37 30 19 53 -72 97 -96 46 -123 77 -122 136 2 48 26 84 74 111 29 16 51 19 127 16 50 -2 94 -6 98 -9z m920 -1 c3 -3 1 -24 -6 -47 -11 -37 -14 -40 -38 -33 -14 4 -49 7 -78 6 -153 -2 -198 -205 -62 -277 27 -14 48 -17 101 -13 l67 5 7 -35 c4 -20 2 -40 -3 -45 -16 -16 -137 -22 -191 -9 -130 31 -199 143 -172 275 15 72 56 126 122 159 48 25 61 27 150 24 53 -2 99 -6 103 -10z m988 -150 c2 -141 4 -159 23 -185 22 -29 58 -39 101 -28 42 10 53 57 53 225 l0 150 55 0 55 0 0 -152 c0 -175 -9 -219 -54 -264 -71 -71 -219 -72 -294 -2 -38 37 -52 107 -52 270 l0 149 55 -3 55 -3 3 -157z m719 77 c27 -44 64 -110 83 -147 20 -38 36 -68 38 -68 1 0 1 67 -1 150 l-3 150 50 0 51 0 0 -230 0 -230 -58 0 -57 0 -32 53 c-17 28 -58 101 -92 162 l-61 110 0 -163 0 -162 -50 0 -50 0 0 230 0 231 67 -3 67 -3 48 -80z m808 40 l0 -45 -65 0 -65 0 0 -185 0 -185 -55 0 -55 0 -2 183 -3 182 -62 3 -63 3 0 44 0 45 185 0 185 0 0 -45z m346 -42 c21 -49 41 -91 44 -96 4 -4 24 34 46 85 l40 93 62 3 c34 2 62 0 62 -4 0 -3 -36 -66 -80 -139 l-80 -133 0 -91 0 -91 -55 0 -55 0 0 95 0 96 -75 130 c-41 72 -75 133 -75 135 0 2 29 4 64 4 l63 0 39 -87z"/>
<path d="M323 500 c-51 -21 -82 -118 -62 -193 16 -62 53 -97 104 -97 75 0 115 51 115 145 0 117 -69 180 -157 145z"/>
<path d="M4005 488 c-55 -43 -71 -137 -36 -215 22 -48 45 -63 96 -63 50 0 71 14 95 60 52 102 -2 240 -95 240 -18 0 -45 -10 -60 -22z"/>
<path d="M7112 497 c-76 -36 -83 -220 -11 -271 13 -9 42 -16 65 -16 35 0 47 6 72 34 55 62 51 179 -8 238 -31 30 -75 36 -118 15z"/>
</g>
</svg>
