<?xml version="1.0" standalone="no"?>
<!DOCTYPE svg PUBLIC "-//W3C//DTD SVG 20010904//EN" "http://www.w3.org/TR/2001/REC-SVG-20010904/DTD/svg10.dtd">
<svg xmlns="http://www.w3.org/2000/svg" version="1.0" width="1280.000000pt" height="840.000000pt" viewBox="0 0 1280.000000 840.000000" preserveAspectRatio="xMidYMid meet">
<metadata>
Created by potrace 1.16, written by Peter Selinger 2001-2019
<meta name="Producer" content="Online-Convert"/></metadata>
<g transform="translate(0.000000,840.000000) scale(0.100000,-0.100000)" fill="#000000" stroke="none">
<path d="M5966 8130 c-28 -3 -52 -12 -54 -18 -2 -7 -13 -12 -25 -12 -12 0 -33 -9 -47 -20 -14 -11 -35 -20 -47 -20 -12 0 -43 -10 -70 -22 -26 -12 -54 -20 -61 -19 -8 1 -19 -5 -26 -15 -7 -9 -25 -18 -40 -19 -15 -2 -32 -8 -39 -13 -7 -5 -26 -13 -43 -16 -18 -4 -40 -16 -50 -27 -11 -13 -30 -19 -58 -19 -23 0 -50 -7 -60 -15 -11 -8 -30 -15 -42 -15 -12 0 -24 -4 -26 -9 -1 -5 -16 -11 -33 -13 -16 -1 -36 -9 -43 -15 -7 -7 -20 -13 -28 -13 -8 0 -14 -4 -14 -10 0 -5 -17 -12 -37 -16 -21 -4 -50 -15 -65 -25 -14 -11 -32 -19 -40 -19 -18 0 -106 -29 -141 -46 -16 -8 -38 -14 -49 -14 -11 0 -32 -6 -46 -14 -15 -8 -52 -24 -82 -35 -30 -11 -91 -33 -135 -50 -44 -17 -92 -31 -106 -31 -16 0 -32 -8 -40 -20 -8 -12 -30 -23 -54 -27 -22 -3 -52 -15 -68 -27 -15 -11 -40 -20 -54 -21 -18 0 -31 -8 -38 -22 -9 -17 -15 -19 -29 -11 -14 8 -28 5 -56 -11 -21 -11 -49 -21 -63 -21 -13 0 -30 -7 -37 -15 -7 -8 -20 -15 -29 -15 -9 0 -36 -10 -61 -22 -25 -11 -52 -20 -62 -19 -9 1 -31 -7 -50 -19 -18 -11 -40 -20 -48 -20 -9 0 -33 -9 -55 -20 -22 -11 -46 -20 -55 -20 -8 0 -23 -7 -33 -15 -11 -7 -25 -11 -33 -8 -8 3 -25 -2 -39 -11 -13 -9 -36 -16 -51 -16 -14 0 -46 -14 -71 -31 -25 -16 -51 -28 -59 -25 -7 3 -18 -2 -24 -10 -7 -8 -20 -14 -30 -14 -9 0 -38 -11 -65 -24 -26 -14 -65 -28 -86 -31 -22 -4 -39 -11 -39 -16 0 -5 -9 -9 -21 -9 -11 0 -33 -7 -47 -15 -31 -16 -116 -45 -136 -45 -16 0 -64 -24 -95 -49 -23 -18 -24 -23 -24 -147 0 -982 6 -1600 14 -1611 6 -7 7 -19 2 -30 -5 -10 -7 -72 -5 -138 2 -66 4 -131 3 -145 -2 -184 1 -265 9 -275 6 -7 6 -15 -1 -22 -13 -13 -19 -90 -9 -118 4 -11 4 -46 1 -77 -6 -45 -4 -61 8 -73 13 -12 13 -19 4 -35 -15 -23 -16 -260 -1 -260 6 0 7 -11 3 -27 -13 -50 -16 -245 -3 -260 8 -10 8 -24 0 -51 -10 -36 -8 -235 4 -253 13 -21 -9 -48 -54 -64 -26 -10 -54 -24 -63 -31 -8 -8 -23 -14 -32 -14 -9 0 -18 -4 -22 -9 -3 -5 -19 -12 -35 -16 -17 -4 -30 -11 -30 -16 0 -5 -6 -9 -13 -9 -8 0 -22 -9 -32 -20 -10 -11 -27 -22 -39 -26 -40 -12 -210 -99 -228 -116 -10 -10 -22 -18 -28 -18 -17 0 -260 -120 -260 -128 0 -5 -19 -16 -42 -26 -24 -10 -71 -31 -105 -47 -34 -16 -65 -29 -68 -29 -4 0 -32 -18 -62 -40 -31 -22 -63 -40 -72 -40 -9 0 -32 -10 -51 -22 -19 -12 -111 -60 -205 -107 -93 -47 -188 -98 -209 -113 -21 -15 -45 -28 -52 -28 -15 0 -139 -64 -203 -104 -22 -14 -45 -26 -49 -26 -31 0 -261 -135 -264 -154 -1 -6 -2 -456 -2 -999 l-1 -988 300 4 c330 4 310 0 407 75 33 26 70 54 82 62 12 8 43 32 68 53 25 20 49 37 54 37 9 0 135 96 169 129 23 22 124 91 134 91 3 0 12 9 19 20 7 11 32 29 56 40 24 12 48 32 54 45 11 24 31 32 45 19 8 -9 -19 -93 -37 -113 -8 -9 -18 -32 -21 -50 -3 -19 -10 -42 -15 -52 -6 -10 -10 -27 -10 -38 0 -12 -3 -21 -8 -21 -9 0 -24 -36 -52 -120 -12 -36 -30 -84 -41 -107 -10 -24 -19 -48 -19 -55 0 -10 68 -13 317 -11 175 1 323 2 329 2 5 1 26 16 46 34 135 121 224 195 260 213 15 8 28 19 28 24 0 25 50 32 209 32 91 0 179 0 194 -1 24 -1 31 -9 48 -48 62 -145 107 -235 123 -245 6 -4 475 -8 1043 -8 l1032 0 58 22 c66 25 152 81 203 133 19 19 38 35 42 35 4 0 8 5 8 12 0 7 11 23 24 37 13 15 34 58 46 96 21 66 22 86 21 360 -1 160 -2 297 -3 305 -1 8 0 252 0 543 l2 527 30 0 c19 0 40 -9 55 -24 l24 -24 1 -1008 c0 -554 2 -1010 5 -1012 6 -6 615 -3 626 4 5 3 6 172 3 383 l-5 378 61 10 c60 10 61 10 78 -19 9 -15 21 -28 26 -28 16 0 94 -87 115 -127 10 -21 33 -51 50 -67 17 -17 31 -40 31 -53 0 -13 7 -26 15 -29 8 -4 15 -15 15 -26 0 -17 27 -60 68 -108 26 -29 122 -200 122 -215 0 -9 7 -18 15 -21 8 -4 15 -16 15 -28 0 -11 7 -29 15 -39 13 -18 45 -19 675 -21 363 -1 665 1 670 4 7 4 9 80 5 211 -3 112 -5 339 -6 504 0 165 -4 319 -9 343 -4 23 -4 45 0 47 5 3 6 33 3 68 l-4 62 26 -30 c15 -16 42 -63 61 -104 19 -41 46 -87 59 -103 13 -16 40 -63 60 -106 20 -42 47 -91 61 -109 13 -17 24 -36 24 -41 0 -6 7 -13 16 -16 10 -4 14 -14 11 -26 -3 -11 -1 -22 3 -25 5 -3 26 -40 47 -83 20 -42 47 -85 59 -95 13 -9 28 -34 35 -55 13 -42 52 -116 96 -182 16 -25 38 -65 49 -90 10 -25 34 -67 51 -95 18 -27 33 -55 33 -62 0 -22 36 -24 355 -21 l310 3 -4 305 c-2 168 -4 319 -4 335 -1 17 0 76 1 133 2 123 9 127 79 46 26 -32 63 -72 81 -90 17 -18 32 -38 32 -43 0 -6 15 -26 33 -44 30 -32 98 -119 167 -212 72 -98 145 -189 185 -229 17 -17 37 -44 45 -60 17 -32 45 -54 56 -43 16 16 -21 69 -146 209 -25 28 -54 65 -65 83 -54 87 -97 145 -115 155 -11 6 -26 23 -34 38 -8 15 -26 39 -40 54 -14 14 -33 39 -43 55 -10 16 -26 38 -36 48 -79 88 -125 142 -160 191 l-40 57 -1 256 -1 256 320 5 320 5 0 75 c0 41 -3 97 -7 124 -5 26 -5 53 -1 59 4 7 6 48 4 93 -2 65 1 84 14 97 19 20 41 22 51 6 3 -6 8 -309 10 -673 2 -363 4 -779 5 -923 2 -187 -1 -266 -9 -276 -9 -10 -9 -22 -1 -45 22 -64 -18 -61 811 -63 832 -2 840 -2 848 10 3 5 2 96 -2 202 -12 296 -6 269 -54 288 -23 9 -48 21 -55 27 -8 6 -32 18 -54 28 -22 9 -53 24 -70 33 -16 9 -43 23 -60 31 -16 8 -42 23 -57 34 -14 10 -32 18 -39 18 -18 0 -89 33 -89 41 0 4 -25 15 -55 24 -54 17 -95 49 -81 62 4 4 119 7 257 6 303 -3 280 -16 273 162 -3 66 -5 158 -4 205 0 95 -13 127 -50 117 -14 -4 -32 5 -58 29 -20 19 -45 34 -55 34 -11 0 -31 9 -46 19 -15 11 -43 22 -63 26 -21 4 -42 13 -49 21 -6 8 -18 14 -25 14 -8 0 -14 4 -14 9 0 5 -17 11 -39 15 -21 3 -44 13 -51 21 -7 8 -33 24 -57 35 -24 11 -42 24 -39 29 4 5 124 9 287 8 328 -1 312 -6 303 97 -3 34 -7 126 -9 206 -1 80 -3 148 -4 153 0 4 -11 5 -24 2 -16 -4 -29 0 -41 14 -11 12 -27 21 -38 21 -10 0 -18 7 -18 15 0 9 -9 15 -24 15 -13 0 -29 7 -37 16 -15 19 -104 65 -112 58 -2 -3 -24 8 -49 25 -24 16 -62 37 -86 46 -23 10 -42 21 -42 26 0 5 -5 9 -11 9 -14 0 -70 26 -209 96 -58 29 -130 65 -160 80 -30 15 -71 36 -90 46 -19 9 -73 36 -120 59 -90 43 -97 47 -230 114 -47 24 -106 51 -132 61 -27 9 -48 21 -48 25 0 9 -194 105 -260 129 -19 8 -42 19 -50 26 -8 6 -37 22 -65 34 -27 13 -66 33 -85 46 -19 13 -42 24 -50 24 -9 0 -43 16 -76 36 -96 59 -206 114 -227 114 -10 0 -36 13 -57 30 -21 17 -47 30 -58 30 -11 0 -27 6 -34 14 -16 16 -98 59 -98 51 0 -2 -21 7 -46 20 -26 14 -54 25 -64 25 -9 0 -28 12 -43 28 l-26 28 0 689 c-1 380 -2 1128 -3 1663 -3 961 -3 974 -23 985 -45 27 -172 76 -196 77 -14 0 -29 4 -35 10 -15 15 -135 60 -160 60 -13 0 -33 4 -46 9 -105 43 -219 82 -226 77 -5 -3 -23 4 -40 15 -18 10 -41 19 -51 19 -11 0 -32 6 -48 14 -53 26 -104 46 -119 46 -8 0 -36 11 -62 25 -26 14 -56 25 -68 25 -11 0 -43 11 -69 25 -27 13 -70 27 -95 31 -25 3 -77 22 -116 40 -39 19 -82 34 -96 34 -14 0 -31 7 -38 15 -7 8 -25 15 -40 15 -16 0 -30 5 -32 11 -2 5 -24 13 -48 16 -25 3 -52 11 -60 18 -8 7 -34 18 -57 24 -23 7 -45 16 -48 21 -3 6 -15 10 -26 10 -11 0 -39 9 -61 20 -23 11 -49 20 -58 20 -8 0 -24 6 -35 14 -11 7 -33 16 -50 18 -32 6 -80 22 -130 43 -42 18 -131 45 -149 45 -8 0 -21 6 -28 14 -8 7 -29 17 -48 21 -19 4 -41 11 -50 15 -14 8 -99 35 -110 35 -3 0 -31 13 -64 28 -32 15 -71 27 -86 27 -16 0 -30 5 -32 10 -2 6 -14 12 -28 14 -24 3 -64 19 -145 57 -22 10 -51 19 -65 19 -14 1 -34 7 -44 15 -11 8 -31 15 -46 15 -14 0 -41 10 -60 23 -19 13 -69 33 -110 46 -41 13 -97 34 -125 46 -59 27 -111 35 -179 25z m67 -92 c49 -26 95 -96 75 -116 -8 -8 -7 -16 3 -28 12 -16 12 -17 -3 -11 -10 3 -30 0 -45 -8 -39 -21 -151 0 -154 29 -4 37 7 66 38 104 36 44 50 49 86 30z m115 -254 c24 -10 42 -24 42 -33 1 -20 113 -121 134 -121 9 0 16 -7 16 -15 0 -22 170 -185 194 -185 6 0 34 9 62 19 41 16 58 18 91 10 l40 -11 -5 -49 c-3 -32 -1 -49 7 -49 6 0 11 -5 11 -11 0 -8 -5 -8 -15 1 -12 10 -18 8 -35 -11 -10 -13 -19 -28 -20 -33 0 -10 54 -63 99 -96 36 -25 53 -42 82 -76 9 -10 39 -37 68 -59 60 -46 69 -70 46 -116 -15 -28 -19 -30 -27 -16 -5 9 -16 17 -23 17 -8 0 -15 5 -15 11 0 15 -39 49 -56 49 -8 0 -21 11 -30 25 -9 14 -22 25 -30 25 -7 0 -32 18 -56 40 -24 21 -54 45 -68 52 -14 7 -31 21 -38 30 -7 9 -38 33 -70 52 -32 19 -67 45 -78 57 -10 12 -35 31 -54 43 -34 21 -44 22 -320 21 -157 -1 -295 2 -306 6 -12 4 -25 5 -28 1 -7 -7 -16 -7 -118 -10 -53 -2 -68 -5 -68 -17 0 -8 -3 -15 -7 -15 -12 0 -62 -41 -96 -77 -17 -18 -36 -33 -43 -33 -7 0 -25 -15 -40 -32 -15 -18 -33 -32 -40 -30 -14 3 -20 -2 -102 -77 -29 -27 -68 -56 -87 -65 -19 -10 -35 -21 -35 -26 0 -13 -118 -90 -143 -93 -16 -1 -23 4 -25 20 -3 17 14 40 60 86 35 35 71 68 81 73 16 9 110 100 181 174 16 16 35 30 42 30 15 0 74 69 74 87 0 6 -9 14 -19 18 -11 3 -25 13 -32 21 -23 27 14 44 98 44 61 0 74 3 83 19 5 11 20 23 32 27 12 3 32 20 46 36 28 33 64 70 150 152 34 32 62 62 62 67 0 9 85 52 125 62 37 11 160 -1 203 -19z m2588 -826 c4 -5 20 -8 36 -8 50 0 182 -40 200 -60 9 -11 21 -20 27 -20 6 0 15 -9 21 -20 6 -11 17 -20 25 -20 8 0 15 -4 15 -10 0 -5 6 -10 13 -10 11 0 47 -65 47 -86 0 -5 11 -19 23 -31 13 -12 29 -41 36 -65 7 -24 19 -50 26 -58 7 -8 20 -64 28 -125 31 -215 4 -462 -69 -633 -8 -18 -14 -42 -14 -52 0 -11 -4 -28 -9 -38 -6 -9 -21 -42 -35 -72 -14 -30 -30 -62 -35 -70 -5 -8 -17 -32 -26 -52 -9 -21 -20 -38 -25 -38 -5 0 -12 -17 -16 -37 -3 -21 -16 -51 -28 -68 -13 -16 -25 -38 -29 -47 -3 -10 -13 -18 -20 -18 -23 0 -50 -37 -45 -63 4 -19 1 -23 -16 -20 -16 3 -24 -4 -35 -28 -16 -36 -177 -199 -197 -199 -6 0 -19 -11 -28 -24 -8 -13 -29 -27 -45 -31 -17 -3 -33 -15 -36 -25 -3 -11 -14 -22 -24 -25 -26 -8 -74 -62 -67 -74 4 -6 17 -11 30 -11 12 0 31 -7 42 -15 10 -8 25 -15 32 -15 7 0 38 -11 68 -25 30 -14 59 -25 63 -25 12 0 71 -75 71 -89 0 -7 11 -22 23 -35 13 -13 33 -41 44 -62 65 -126 96 -180 109 -187 7 -4 14 -16 14 -25 0 -9 11 -37 25 -61 14 -23 25 -49 25 -56 0 -7 7 -18 15 -25 8 -7 15 -21 15 -31 0 -10 9 -23 20 -29 12 -6 25 -30 32 -56 7 -25 20 -54 30 -64 10 -11 18 -27 18 -37 0 -10 18 -54 40 -98 22 -44 40 -86 40 -94 0 -7 9 -28 20 -46 26 -41 14 -87 -20 -78 -11 3 -26 1 -33 -4 -6 -6 -46 -20 -87 -32 -41 -13 -92 -31 -113 -42 -22 -10 -47 -19 -56 -19 -9 0 -34 -9 -56 -20 -22 -11 -47 -20 -56 -20 -9 0 -22 -7 -29 -15 -7 -8 -22 -15 -34 -15 -12 0 -41 -9 -64 -20 -22 -11 -45 -20 -51 -20 -5 0 -11 -3 -13 -8 -3 -6 -70 -32 -233 -88 -27 -9 -57 -21 -67 -25 -9 -4 -39 -11 -66 -15 -47 -6 -50 -5 -75 27 -14 19 -34 54 -46 79 -11 25 -32 57 -46 72 -14 15 -25 30 -25 34 0 3 -18 33 -40 66 -22 33 -40 67 -40 76 0 9 -11 27 -24 41 -13 15 -46 67 -72 116 -25 50 -55 96 -65 103 -19 13 -49 67 -49 89 0 7 -4 13 -9 13 -13 0 -51 68 -51 91 0 10 -4 19 -9 19 -4 0 -31 36 -59 79 -31 50 -62 86 -82 96 -71 37 -341 10 -355 -35 -3 -9 -4 -322 -3 -695 l3 -678 -29 -3 c-16 -2 -34 -8 -39 -13 -6 -6 -20 -11 -32 -11 -11 0 -38 -9 -60 -20 -22 -11 -45 -20 -51 -20 -6 0 -25 -7 -40 -15 -16 -8 -36 -15 -44 -15 -8 0 -24 -7 -34 -15 -11 -8 -30 -15 -43 -15 -13 0 -37 -10 -52 -21 -16 -12 -34 -18 -40 -15 -6 4 -32 -5 -58 -19 -26 -14 -57 -25 -69 -25 -12 0 -33 -9 -46 -20 -14 -10 -28 -17 -31 -13 -4 3 -27 -4 -52 -16 -24 -11 -53 -21 -64 -21 -10 0 -24 -7 -31 -15 -7 -8 -21 -15 -31 -15 -10 0 -34 -9 -54 -20 -19 -11 -40 -17 -47 -15 -7 3 -35 -6 -62 -20 -27 -14 -60 -25 -73 -25 -27 0 -26 -17 -23 315 2 241 1 353 -2 410 -1 22 -1 101 0 175 0 74 -1 544 -3 1043 -3 673 -7 913 -16 923 -6 8 -20 14 -31 14 -11 0 -57 11 -102 24 -44 13 -117 27 -161 31 -44 3 -84 10 -89 16 -6 5 -22 9 -37 9 -15 0 -40 5 -55 10 -15 6 -61 15 -103 21 -89 11 -248 46 -273 60 -10 5 -36 9 -58 9 -22 0 -73 9 -113 19 -39 10 -92 23 -117 27 -51 9 -44 7 -90 19 -19 5 -39 9 -45 10 -5 0 -30 4 -55 9 -25 4 -57 9 -72 10 -15 2 -33 8 -40 13 -7 5 -35 10 -62 11 -27 1 -55 7 -62 13 -13 11 -80 23 -201 35 -64 7 -70 3 -64 -38 0 -6 1 -151 0 -253 -1 -276 2 -315 24 -330 12 -8 36 -15 54 -15 18 0 42 -4 55 -9 13 -5 68 -19 123 -31 55 -12 111 -26 125 -32 22 -9 93 -23 218 -45 18 -3 35 -9 38 -14 3 -5 20 -9 39 -9 19 0 37 -4 40 -10 3 -5 21 -10 39 -10 19 0 67 -11 108 -24 42 -14 129 -34 194 -46 66 -12 128 -25 139 -30 31 -13 148 -40 176 -40 14 0 35 -10 47 -23 21 -22 21 -29 21 -406 l0 -383 -27 6 c-15 3 -61 13 -102 21 -100 22 -180 35 -207 35 -13 0 -23 5 -23 10 0 6 -13 10 -30 10 -16 0 -39 4 -52 9 -31 12 -165 45 -263 66 -150 31 -170 35 -230 50 -33 9 -76 20 -95 26 -41 12 -93 24 -168 38 -28 5 -86 19 -128 31 -73 20 -78 20 -96 3 -13 -11 -17 -25 -14 -39 5 -17 9 -870 6 -1162 0 -19 -4 -22 -28 -17 -54 12 -137 38 -147 46 -5 5 -21 9 -35 9 -14 0 -35 7 -46 15 -10 8 -32 15 -49 15 -16 0 -39 7 -49 15 -10 8 -22 12 -26 10 -10 -6 -108 25 -173 55 -26 12 -75 26 -108 31 -33 5 -85 21 -116 34 -30 14 -65 25 -76 25 -24 0 -81 17 -117 35 -14 7 -45 16 -70 19 -69 11 -120 36 -121 60 0 12 -2 176 -3 366 -1 190 -3 392 -4 450 -3 154 -4 294 -2 580 1 140 2 271 2 290 -1 19 -3 150 -6 290 -2 140 -1 274 4 298 4 23 4 42 -1 42 -4 0 -8 89 -9 198 0 108 -3 347 -5 531 l-4 334 91 -7 c50 -3 97 -11 103 -16 7 -6 51 -15 96 -20 110 -12 181 -24 196 -33 14 -9 95 -26 143 -31 68 -6 195 -28 215 -36 11 -4 56 -13 100 -20 44 -6 96 -15 115 -21 19 -5 64 -13 100 -19 61 -9 110 -17 220 -39 25 -5 92 -16 150 -25 58 -9 114 -21 125 -26 11 -5 65 -16 120 -25 130 -21 184 -30 275 -49 41 -9 85 -16 98 -16 13 0 35 -6 50 -14 23 -12 137 -29 262 -39 14 -1 30 -6 36 -12 6 -6 53 -16 105 -23 117 -16 177 -27 257 -45 64 -14 162 -8 207 13 22 11 99 27 130 28 20 1 54 9 205 52 141 41 205 60 280 84 25 8 72 20 105 26 33 7 77 18 98 26 20 8 51 14 67 14 16 0 32 5 35 10 3 6 18 10 33 10 15 0 65 12 112 26 47 15 103 30 125 34 73 15 110 27 145 45 19 11 51 21 70 22 72 7 207 40 225 55 5 4 23 8 41 8 17 0 56 7 85 16 30 8 72 20 94 26 22 5 58 16 81 24 22 8 70 18 105 23 35 5 93 16 129 25 36 9 108 26 160 37 52 12 103 24 114 28 25 9 172 8 182 -1z m788 -3469 c22 -11 43 -19 47 -19 5 0 25 -11 45 -25 20 -14 46 -25 56 -25 11 0 32 -8 46 -18 23 -16 101 -54 337 -169 28 -14 77 -38 110 -55 33 -17 71 -35 85 -42 14 -6 68 -33 120 -61 52 -28 115 -58 140 -69 76 -32 115 -51 118 -58 2 -5 8 -8 13 -8 6 0 74 -32 152 -71 78 -39 169 -85 202 -101 33 -17 62 -34 63 -39 2 -5 12 -9 21 -9 22 0 77 -26 111 -52 33 -26 168 -88 190 -88 10 0 23 -7 30 -15 7 -9 39 -27 71 -42 33 -15 59 -31 59 -35 0 -4 7 -8 15 -8 8 0 15 -3 15 -8 0 -11 94 -52 119 -52 12 0 21 -4 21 -9 0 -5 12 -14 28 -20 15 -6 34 -15 42 -21 8 -5 38 -20 65 -33 100 -48 175 -89 175 -97 0 -5 -9 -12 -20 -15 -19 -6 -385 -8 -675 -3 -72 1 -136 -1 -143 -5 -6 -5 -20 -4 -29 1 -10 5 -135 8 -278 7 l-260 -1 -60 26 c-33 15 -71 37 -85 50 -14 12 -47 38 -75 57 -100 68 -142 99 -186 134 -24 20 -58 45 -75 55 -17 11 -46 31 -65 46 -60 47 -121 92 -175 128 -29 19 -78 56 -111 82 -32 27 -64 48 -71 48 -19 0 -68 36 -126 92 -29 27 -69 54 -97 64 -27 10 -51 25 -54 34 -3 9 -22 26 -43 37 -20 12 -48 33 -61 47 -14 14 -30 26 -36 26 -7 0 -32 16 -56 35 -93 73 -155 116 -176 121 -15 4 -23 14 -23 28 0 21 52 52 133 78 17 5 56 21 86 34 30 14 67 28 84 31 16 3 46 14 66 24 38 19 53 18 115 -12z m-6624 -183 c25 -8 65 -21 90 -29 25 -8 83 -28 130 -45 136 -49 336 -112 354 -112 16 0 46 -22 46 -33 0 -7 -128 -90 -173 -113 -20 -10 -47 -28 -60 -39 -12 -11 -53 -36 -90 -55 -37 -19 -76 -42 -86 -52 -10 -9 -43 -29 -72 -44 -30 -14 -66 -37 -81 -49 -15 -13 -53 -36 -84 -52 -31 -15 -66 -37 -78 -48 -12 -11 -53 -36 -90 -55 -38 -19 -73 -42 -80 -51 -6 -9 -33 -26 -61 -38 -27 -12 -52 -25 -55 -29 -9 -12 -119 -82 -130 -82 -12 0 -104 -69 -108 -81 -2 -5 -10 -9 -17 -9 -7 0 -40 -14 -72 -30 l-59 -30 -679 0 c-416 0 -683 4 -689 10 -14 14 9 35 62 55 72 28 190 84 194 93 4 10 111 62 127 62 12 0 70 29 81 40 10 10 86 55 120 72 19 9 66 30 105 48 38 17 72 35 75 39 3 4 71 40 152 80 81 39 153 77 160 84 7 7 24 17 38 24 14 6 59 27 100 47 41 19 102 51 135 70 33 19 67 35 76 36 21 0 103 44 149 79 38 29 67 44 119 60 19 6 67 31 105 55 75 46 124 70 221 110 72 30 69 30 125 12z m6112 -8 c25 -13 51 -33 57 -45 6 -13 15 -23 20 -23 14 0 85 -49 93 -65 5 -7 32 -26 61 -43 29 -16 64 -41 77 -56 14 -14 30 -26 36 -26 6 0 19 -9 29 -20 10 -11 23 -20 29 -20 6 -1 27 -14 46 -30 19 -17 38 -30 43 -30 5 0 26 -15 47 -32 74 -65 156 -126 197 -146 22 -12 43 -26 45 -31 4 -12 53 -48 140 -101 37 -23 87 -59 112 -81 24 -21 48 -39 53 -39 6 0 18 -9 28 -20 10 -11 22 -20 27 -20 5 0 20 -11 34 -25 14 -14 29 -25 34 -25 5 0 21 -11 36 -25 15 -14 33 -25 40 -25 7 0 17 -7 22 -16 5 -8 37 -34 73 -57 110 -72 117 -71 -339 -71 -222 -1 -405 1 -407 4 -2 3 -40 3 -85 -1 -45 -3 -103 -2 -128 2 -28 4 -52 3 -59 -3 -9 -7 -17 -7 -26 1 -8 6 -17 8 -20 5 -3 -4 -124 -6 -268 -5 -154 0 -269 -3 -279 -9 -13 -7 -21 -7 -25 0 -3 5 -33 10 -65 10 -67 0 -82 10 -114 80 -12 25 -33 61 -48 80 -14 19 -36 53 -48 75 -12 22 -37 58 -55 80 -18 22 -42 60 -55 85 -13 25 -38 63 -56 86 -19 22 -41 57 -49 78 -9 21 -33 56 -54 79 -20 23 -45 53 -54 67 -21 31 -23 80 -2 80 8 0 34 11 57 24 24 13 70 31 103 41 33 9 65 20 70 25 6 4 35 15 65 25 30 10 71 25 90 35 19 9 64 25 99 34 35 10 92 31 126 47 35 16 69 29 77 29 7 0 31 9 53 19 53 25 62 25 117 -1z m-5358 -244 c34 -10 65 -21 70 -25 18 -16 -60 -83 -183 -156 -20 -12 -41 -26 -47 -31 -6 -6 -44 -29 -84 -51 -40 -23 -89 -54 -109 -70 -37 -28 -230 -157 -266 -176 -35 -20 -80 -49 -90 -60 -24 -26 -85 -65 -102 -65 -10 0 -36 -16 -58 -36 -22 -19 -63 -46 -91 -60 -28 -13 -65 -36 -82 -52 -16 -15 -41 -34 -54 -43 -14 -10 -35 -46 -51 -86 -24 -60 -36 -76 -92 -120 -35 -29 -74 -57 -87 -64 -13 -6 -39 -26 -58 -43 -40 -35 -106 -73 -115 -65 -3 3 -7 73 -10 155 -4 110 -2 155 7 174 8 14 40 39 73 57 33 17 66 37 73 43 8 7 33 23 55 35 23 12 91 52 151 88 59 37 110 67 112 67 2 0 23 14 46 30 22 17 45 30 51 30 5 0 39 20 76 44 36 24 80 50 96 57 17 7 60 35 96 61 37 26 69 48 72 48 4 0 37 19 74 43 37 24 90 54 116 68 26 13 56 31 65 39 9 9 49 34 87 55 39 22 79 45 90 52 11 7 27 16 35 20 8 4 26 17 40 30 30 27 20 27 94 7z m225 -75 c20 -6 50 -17 66 -24 17 -7 48 -18 70 -24 128 -33 140 -38 140 -57 0 -12 -8 -20 -24 -22 -13 -2 -37 -17 -55 -32 -37 -34 -94 -74 -154 -107 -56 -31 -152 -104 -152 -114 0 -5 -9 -9 -19 -9 -11 0 -26 -6 -33 -12 -7 -7 -26 -20 -42 -28 -17 -8 -44 -29 -61 -46 -17 -17 -56 -43 -86 -58 -30 -15 -65 -38 -80 -52 -14 -13 -30 -24 -36 -24 -6 0 -25 -13 -43 -30 -18 -16 -34 -30 -37 -30 -2 0 -30 -17 -61 -37 l-57 -38 -275 0 c-306 0 -322 4 -222 56 30 15 68 39 85 53 17 14 35 26 39 26 13 0 121 70 133 86 5 7 33 25 62 39 29 14 65 38 80 53 15 15 48 37 73 49 48 24 68 36 115 69 17 11 50 30 75 43 25 13 54 31 65 40 11 10 36 27 55 37 19 10 43 29 55 40 11 12 40 31 65 43 25 12 77 44 115 71 74 53 88 56 144 39z m4236 -39 c14 -22 25 -43 25 -47 0 -4 13 -21 29 -38 16 -16 48 -66 72 -110 23 -44 47 -83 54 -87 7 -4 25 -32 39 -63 15 -30 37 -63 49 -72 12 -10 33 -42 47 -70 14 -29 28 -53 31 -53 4 0 9 -10 13 -22 3 -13 17 -35 31 -51 15 -15 33 -43 40 -62 8 -18 25 -41 37 -49 21 -15 22 -21 22 -236 1 -176 4 -222 15 -229 7 -5 147 -9 310 -10 163 -1 300 -6 304 -10 5 -5 8 -20 8 -32 -3 -57 -2 -568 3 -954 3 -297 2 -423 -6 -433 -14 -16 -27 1 -28 33 0 11 -14 40 -30 64 -17 25 -33 56 -36 70 -4 15 -16 35 -29 46 -12 11 -30 44 -40 73 -9 29 -28 66 -41 81 -13 16 -24 33 -24 37 0 5 -18 36 -40 69 -22 33 -40 66 -40 75 0 19 -37 91 -54 105 -6 6 -21 28 -33 50 -25 50 -69 130 -117 215 -33 60 -42 78 -75 150 -6 14 -29 54 -51 90 -74 119 -71 99 -69 433 l2 302 -37 54 c-20 29 -36 59 -36 65 0 7 -11 23 -24 35 -14 13 -32 38 -41 55 -9 17 -25 45 -35 61 -11 17 -23 37 -27 45 -4 8 -20 28 -36 45 -16 16 -36 44 -44 60 -12 26 -47 80 -71 110 -39 50 -62 84 -62 93 0 7 -16 32 -35 58 -33 43 -43 73 -28 87 15 16 34 5 58 -33z m-70 -57 c20 -38 49 -86 65 -108 17 -22 40 -60 52 -84 13 -23 30 -49 40 -55 10 -7 25 -30 34 -52 17 -40 73 -126 87 -132 4 -2 7 -9 7 -16 0 -7 18 -38 40 -69 22 -30 40 -59 40 -63 0 -4 10 -18 22 -31 15 -16 19 -26 11 -34 -13 -13 -449 -14 -484 0 -18 6 -33 25 -45 55 -11 25 -22 46 -26 46 -5 0 -8 7 -8 14 0 8 -19 50 -42 93 -23 43 -55 105 -71 138 -17 33 -33 62 -37 65 -4 3 -15 26 -25 52 -10 26 -24 53 -31 59 -8 6 -14 24 -14 40 0 23 6 32 28 41 15 6 41 16 57 23 17 7 62 22 100 34 39 13 79 26 90 31 67 29 71 27 110 -47z m-3750 -43 c6 -4 37 -16 70 -25 33 -10 69 -21 80 -26 11 -4 29 -9 40 -11 13 -2 21 -12 23 -28 2 -21 -10 -36 -68 -84 -38 -32 -70 -63 -70 -68 0 -4 -11 -13 -25 -18 -14 -5 -34 -23 -43 -40 -9 -16 -25 -33 -35 -36 -10 -3 -44 -30 -75 -60 -31 -30 -61 -54 -66 -54 -5 0 -26 -16 -45 -35 -20 -19 -60 -57 -90 -84 l-54 -49 0 -568 c1 -313 2 -704 3 -868 1 -287 -4 -339 -28 -310 -10 12 -48 111 -56 147 -4 15 -15 36 -26 47 -11 11 -20 26 -20 34 0 15 -30 95 -65 171 -12 28 -29 66 -36 85 -7 19 -23 54 -36 77 -13 23 -23 56 -23 73 0 17 -11 47 -25 68 -13 20 -31 64 -39 96 -9 33 -22 66 -30 75 -7 9 -16 27 -19 41 -7 32 -49 143 -57 150 -9 7 -60 129 -60 143 0 7 -9 29 -20 50 -11 20 -20 43 -20 51 0 8 -6 27 -14 43 -8 15 -20 42 -26 58 -7 17 -19 42 -26 57 -8 14 -14 32 -14 40 0 8 -10 36 -23 64 -40 84 -49 121 -36 141 11 18 79 65 189 133 32 19 72 50 91 68 18 17 39 32 46 32 17 0 57 26 96 61 16 15 41 33 55 40 32 16 115 70 122 79 4 6 40 31 108 75 9 6 40 25 69 43 29 18 53 37 53 43 0 5 17 17 38 26 20 8 52 28 70 44 29 25 39 29 70 23 20 -4 42 -10 47 -14z m3346 -87 c11 -27 53 -113 91 -193 39 -80 76 -158 83 -175 7 -16 23 -52 36 -80 12 -27 28 -63 34 -80 7 -20 11 -198 13 -520 4 -870 4 -1276 -1 -1281 -10 -11 -37 29 -42 64 -4 20 -13 49 -21 65 -8 15 -13 27 -10 27 6 0 -31 105 -55 154 -10 22 -19 46 -19 54 0 8 -6 26 -14 40 -8 15 -22 52 -31 82 -9 30 -27 80 -40 110 -13 30 -34 89 -47 131 l-23 76 58 69 c32 38 60 80 63 94 3 14 10 33 16 44 5 10 11 33 13 50 2 17 9 51 15 76 14 53 7 199 -11 250 -23 66 -81 185 -99 205 -27 30 -60 93 -60 115 0 11 -7 20 -15 20 -8 0 -17 12 -20 28 -10 47 -27 96 -40 112 -6 8 -20 41 -29 73 -10 31 -21 57 -26 57 -4 0 -20 29 -34 65 -14 35 -35 82 -46 102 -11 21 -20 45 -20 53 0 8 -7 23 -15 33 -18 25 -8 47 21 47 14 0 42 11 64 25 22 14 48 25 57 25 10 1 32 7 48 15 17 7 42 14 57 14 24 1 31 -6 49 -46z m-2931 -54 c30 -11 70 -27 88 -35 18 -8 46 -14 62 -14 16 0 32 -4 35 -10 3 -5 14 -10 24 -10 9 0 35 -9 57 -19 22 -11 57 -22 79 -26 22 -4 63 -18 91 -31 28 -13 56 -24 63 -24 19 0 115 -32 125 -41 6 -5 18 -9 27 -9 10 0 30 -6 46 -14 15 -7 81 -31 145 -51 64 -21 122 -41 128 -45 16 -10 23 -410 8 -410 -11 0 -78 64 -78 74 0 11 -82 81 -114 97 -125 64 -203 89 -296 95 -113 6 -298 6 -308 0 -7 -4 -16 -5 -21 -1 -6 3 -192 6 -415 6 -391 2 -406 2 -406 20 0 23 82 104 127 126 18 8 35 23 38 32 3 9 20 25 37 35 18 11 49 35 69 55 20 20 69 66 110 103 154 139 140 129 184 123 22 -3 65 -15 95 -26z m2581 -40 c22 -11 66 -99 76 -151 3 -18 12 -42 19 -53 7 -11 25 -53 40 -92 14 -40 30 -73 34 -73 10 0 45 -108 38 -116 -3 -2 -25 2 -49 11 -122 44 -120 44 -730 44 -321 0 -591 2 -600 6 -9 3 -22 -1 -29 -10 -10 -12 -16 -13 -27 -3 -8 6 -29 12 -46 12 -20 1 -32 6 -32 15 0 11 18 14 89 12 62 -2 99 2 120 12 17 8 58 23 91 32 33 9 79 28 102 41 23 13 53 24 67 24 13 0 31 7 40 15 8 8 24 15 35 15 11 0 22 4 25 9 3 5 18 12 33 16 30 7 137 47 190 71 17 8 40 14 51 14 12 0 24 5 27 10 3 6 13 10 22 10 8 0 31 7 51 16 63 27 76 33 102 39 14 4 41 14 60 23 132 60 168 69 201 51z m-1523 -321 c7 -9 12 -199 14 -543 5 -558 2 -715 -14 -715 -5 0 -29 19 -54 43 -25 23 -63 59 -85 79 -22 20 -57 44 -79 54 -34 15 -38 20 -28 38 6 11 39 47 74 79 69 65 115 133 122 182 2 16 6 202 8 413 4 311 7 382 18 382 8 0 18 -6 24 -12z m-3347 -436 c-13 -26 -32 -63 -42 -83 -11 -20 -19 -48 -19 -62 0 -13 -9 -36 -21 -51 -28 -35 -134 -116 -153 -116 -8 0 -47 -27 -86 -60 -44 -36 -84 -61 -103 -64 -18 -3 -171 -4 -342 -3 -265 2 -310 4 -310 17 0 8 21 22 49 32 27 10 65 32 84 48 20 17 42 30 49 30 7 0 34 13 61 29 27 16 58 32 69 35 11 3 29 15 41 26 11 11 54 36 94 56 72 35 75 36 215 39 156 4 155 4 248 80 50 40 112 83 150 103 35 19 42 -4 16 -56z m2366 -109 c3 -7 -4 -20 -14 -30 -14 -15 -101 -118 -142 -169 -5 -6 -16 -25 -26 -43 -31 -60 -40 -34 -40 115 l0 139 80 5 c90 6 137 0 142 -17z m2218 11 c43 -10 75 -33 75 -56 0 -11 5 -29 11 -41 7 -11 11 -48 11 -82 l-2 -60 -70 -67 c-57 -54 -76 -66 -102 -66 -18 0 -44 -2 -58 -6 -72 -17 -113 -22 -191 -21 -47 1 -91 5 -98 9 -8 5 -12 46 -12 129 -1 247 1 264 34 269 38 6 371 -1 402 -8z m-2018 -21 c40 -19 93 -96 93 -136 0 -17 -8 -53 -17 -81 -17 -53 -30 -63 -118 -94 -43 -15 -310 -42 -335 -34 -25 9 -10 37 80 148 14 17 32 41 40 54 14 22 98 131 121 158 14 17 87 8 136 -15z m-3257 -14 c13 -9 13 -11 1 -16 -8 -3 -26 -17 -39 -30 -13 -13 -45 -31 -70 -40 -46 -15 -110 -56 -125 -80 -4 -7 -17 -13 -27 -13 -11 0 -42 -13 -68 -30 -27 -16 -53 -30 -57 -30 -4 0 -29 -16 -55 -35 -35 -26 -49 -32 -58 -23 -17 17 -16 274 1 285 26 17 474 28 497 12z m9767 -10 c37 -15 257 -123 263 -129 10 -10 129 -63 167 -75 37 -10 113 -56 113 -67 0 -5 -9 -6 -20 -3 -18 6 -107 8 -175 4 -62 -3 -575 10 -583 15 -13 8 -14 237 0 253 13 17 195 18 235 2z m-9207 -177 c0 -19 -33 -118 -45 -138 -7 -11 -18 -36 -23 -55 -6 -19 -26 -77 -45 -129 -29 -82 -40 -99 -73 -122 -22 -16 -50 -27 -64 -25 l-25 2 -3 125 c-1 69 0 135 3 147 7 32 71 88 140 125 33 17 69 42 80 55 19 22 55 32 55 15z m611 -64 c13 -24 25 -56 26 -72 1 -16 9 -54 18 -83 21 -65 28 -52 -134 -210 -123 -120 -155 -134 -117 -50 8 18 26 68 41 112 15 44 30 89 35 100 4 11 13 45 20 75 7 30 19 69 25 85 7 17 18 42 24 58 15 38 33 34 62 -15z m110 -285 c1 -5 3 -19 5 -33 7 -55 17 -90 24 -90 5 0 12 -15 15 -32 4 -18 11 -38 16 -44 13 -16 -19 -47 -38 -40 -8 3 -75 6 -149 6 -75 0 -134 4 -134 9 0 9 49 60 102 107 12 11 45 44 71 72 43 46 84 67 88 45z m4564 -95 c9 -24 21 -51 27 -62 11 -22 59 -150 95 -256 14 -41 30 -83 35 -93 18 -37 58 -155 58 -173 -1 -15 -9 -10 -35 21 -19 22 -35 43 -35 47 0 13 -20 53 -45 93 -14 22 -30 52 -36 68 -6 15 -15 27 -20 27 -4 0 -27 26 -49 58 -23 31 -78 91 -123 134 l-81 76 25 22 c20 18 139 77 160 79 3 1 14 -18 24 -41z m-5480 -95 c-3 -21 -13 -51 -21 -67 -8 -16 -14 -34 -14 -40 0 -10 -39 -42 -180 -150 -25 -19 -58 -46 -73 -60 -16 -14 -40 -29 -54 -32 -14 -4 -49 -28 -77 -53 -29 -25 -81 -68 -116 -94 -36 -26 -105 -78 -154 -115 -101 -76 -152 -106 -172 -98 -12 4 -14 64 -14 340 0 321 1 336 19 346 13 6 158 10 403 10 l383 0 30 25 c41 33 48 31 40 -12z m2635 -13 c12 -8 13 -13 3 -30 -7 -11 -13 -26 -13 -34 0 -7 -18 -40 -40 -72 -22 -33 -40 -62 -40 -67 0 -4 -12 -26 -26 -49 -25 -39 -27 -41 -40 -23 -8 10 -11 28 -8 38 4 11 6 66 5 123 -1 88 2 105 17 113 22 13 122 14 142 1z m292 -1 c53 -12 86 -28 123 -62 17 -15 20 -31 20 -100 0 -130 -39 -174 -170 -191 -69 -9 -338 -11 -352 -3 -17 11 4 67 42 112 18 21 36 52 39 70 4 18 15 40 25 50 11 9 22 34 26 55 4 21 14 45 23 53 29 26 139 34 224 16z m6493 -20 c5 -5 17 -9 27 -9 10 0 21 -7 24 -15 4 -8 12 -15 19 -15 11 0 114 -51 140 -69 6 -4 33 -16 60 -26 28 -10 61 -26 75 -35 14 -10 42 -23 63 -31 21 -7 46 -21 55 -30 10 -8 29 -19 44 -22 31 -8 76 -43 67 -52 -8 -8 -166 -8 -179 0 -5 3 -13 -3 -19 -12 -8 -14 -13 -15 -19 -6 -6 10 -82 14 -301 17 -318 4 -310 2 -311 61 -3 151 0 228 10 240 6 8 30 16 53 18 59 6 180 -3 192 -14z m-8801 -483 c-3 -8 -22 -28 -42 -43 -21 -15 -74 -61 -120 -102 -63 -55 -86 -71 -95 -62 -9 9 -7 19 6 44 9 17 24 55 33 82 34 104 22 95 128 95 79 0 94 -2 90 -14z"/>
<path d="M5935 7600 c-30 -27 -61 -50 -69 -50 -7 0 -29 -15 -49 -32 -20 -18 -43 -39 -52 -46 -8 -7 -15 -19 -15 -27 0 -12 43 -14 254 -14 222 -1 255 1 260 15 7 20 -1 34 -19 34 -14 0 -122 84 -160 124 -19 21 -66 46 -85 46 -6 0 -35 -22 -65 -50z"/>
<path d="M7855 5988 c-38 -4 -90 -15 -114 -23 -25 -8 -61 -15 -81 -15 -20 0 -40 -4 -46 -10 -5 -5 -37 -15 -69 -21 -33 -6 -71 -17 -85 -23 -14 -7 -54 -18 -90 -25 -36 -6 -74 -15 -85 -20 -11 -4 -40 -15 -65 -23 l-45 -15 0 -414 0 -414 32 -3 c18 -2 42 4 55 12 21 14 126 47 208 65 19 5 49 15 65 23 29 15 47 22 145 56 25 8 56 20 70 27 14 7 37 15 51 18 14 4 36 16 50 27 13 12 34 29 45 40 12 10 31 21 43 25 12 3 29 18 38 32 10 15 37 39 62 54 45 29 81 72 81 98 0 8 10 35 22 60 20 40 23 62 23 166 -1 152 -13 196 -73 253 -26 23 -55 44 -67 47 -49 10 -105 11 -170 3z"/>
</g>
</svg>
